HIERARCHY
ROOT Hips
{
 OFFSET 0.000000 0.000000 0.000000
 CHANNELS 6 Xposition Yposition Zposition Yrotation Xrotation Zrotation
 JOINT Chest
 {
  OFFSET 0.000000 9.585900 0.002600
  CHANNELS 3 Yrotation Xrotation Zrotation
  JOINT Chest2
  {
   OFFSET 0.000000 9.601200 -0.005300
   CHANNELS 3 Yrotation Xrotation Zrotation
   JOINT Chest3
   {
    OFFSET 0.000000 9.561800 0.000000
    CHANNELS 3 Yrotation Xrotation Zrotation
    JOINT Chest4
    {
     OFFSET 0.000000 9.552100 0.000000
     CHANNELS 3 Yrotation Xrotation Zrotation
     JOINT Neck
     {
      OFFSET 0.000000 14.453000 0.000000
      CHANNELS 3 Yrotation Xrotation Zrotation
      JOINT Head
      {
       OFFSET 0.000000 8.936500 -0.011300
       CHANNELS 3 Yrotation Xrotation Zrotation
       End Site
       {
        OFFSET 0.000000 17.073600 -0.006000
       }
      }
     }
     JOINT RightCollar
     {
      OFFSET -2.921100 9.558500 0.000000
      CHANNELS 3 Yrotation Xrotation Zrotation
      JOINT RightShoulder
      {
       OFFSET -13.519700 0.000000 0.000000
       CHANNELS 3 Yrotation Xrotation Zrotation
       JOINT RightElbow
       {
        OFFSET 0.000000 -29.696600 0.000000
        CHANNELS 3 Yrotation Xrotation Zrotation
        JOINT RightWrist
        {
         OFFSET 0.000000 -24.004700 0.000000
         CHANNELS 3 Yrotation Xrotation Zrotation
         End Site
         {
          OFFSET 0.000000 -17.728500 0.000000
         }
        }
       }
      }
     }
     JOINT LeftCollar
     {
      OFFSET 2.921100 9.558500 0.000000
      CHANNELS 3 Yrotation Xrotation Zrotation
      JOINT LeftShoulder
      {
       OFFSET 13.519700 0.000000 0.000000
       CHANNELS 3 Yrotation Xrotation Zrotation
       JOINT LeftElbow
       {
        OFFSET 0.000000 -29.696600 0.000000
        CHANNELS 3 Yrotation Xrotation Zrotation
        JOINT LeftWrist
        {
         OFFSET 0.000000 -24.004700 0.000000
         CHANNELS 3 Yrotation Xrotation Zrotation
         End Site
         {
          OFFSET 0.000000 -17.728500 0.000000
         }
        }
       }
      }
     }
    }
   }
  }
 }
 JOINT RightHip
 {
  OFFSET -7.771700 -0.012900 -0.001300
  CHANNELS 3 Yrotation Xrotation Zrotation
  JOINT RightKnee
  {
   OFFSET 0.000000 -40.869800 0.001200
   CHANNELS 3 Yrotation Xrotation Zrotation
   JOINT RightAnkle
   {
    OFFSET 0.000000 -39.717900 0.002100
    CHANNELS 3 Yrotation Xrotation Zrotation
    JOINT RightToe
    {
     OFFSET 0.000000 -4.965400 11.033500
     CHANNELS 3 Yrotation Xrotation Zrotation
     End Site
     {
      OFFSET 0.000000 -1.423100 5.872300
     }
    }
   }
  }
 }
 JOINT LeftHip
 {
  OFFSET 7.771700 -0.012900 -0.001300
  CHANNELS 3 Yrotation Xrotation Zrotation
  JOINT LeftKnee
  {
   OFFSET 0.000000 -40.869800 0.001200
   CHANNELS 3 Yrotation Xrotation Zrotation
   JOINT LeftAnkle
   {
    OFFSET 0.000000 -39.717900 0.002100
    CHANNELS 3 Yrotation Xrotation Zrotation
    JOINT LeftToe
    {
     OFFSET 0.000000 -4.965400 11.033500
     CHANNELS 3 Yrotation Xrotation Zrotation
     End Site
     {
      OFFSET 0.000000 -1.423100 5.872300
     }
    }
   }
  }
 }
}
MOTION
Frames: 16
Frame Time: 0.008333
-69.771971 50.508872 -4.693087 165.785787 -6.773147 -0.353532 2.858431 6.650665 0.980116 0.102646 0.284950 -0.000473 0.189334 0.500948 0.000902 2.348348 6.357778 0.121294 1.637299 18.926458 0.540589 2.803970 -0.639426 0.467805 2.339628 6.830221 0.933008 -8.278017 -12.601937 -7.857096 -26.168672 -80.083568 42.895785 -2.525796 -2.951066 -34.776032 -5.457992 3.180911 -0.985792 19.014037 -7.651120 4.228565 44.903856 -72.938613 -65.959569 4.315589 -0.213476 19.693126 -5.421208 -73.247994 -2.216967 -129.181652 81.154753 -127.585967 -2.289129 -17.174676 0.260506 -0.282547 0.831560 -0.137904 -9.417885 -77.409377 25.402839 115.090988 78.053824 112.151959 -15.677702 -21.909594 0.398765 -0.320741 -1.072971 -0.200619
-69.770212 50.508735 -4.693544 165.785563 -6.773662 -0.357148 2.856847 6.651005 0.983343 0.095221 0.283453 -0.002343 0.194503 0.502676 0.002263 2.341713 6.354990 0.114991 1.640641 18.932181 0.542019 2.810170 -0.640861 0.468429 2.324398 6.813256 0.928814 -8.258248 -12.587455 -7.856277 -26.185699 -80.081639 42.916762 -2.523355 -2.944785 -34.776153 -5.458387 3.177586 -0.980011 19.019612 -7.671206 4.222262 44.872996 -72.937344 -65.930570 4.313641 -0.223577 19.689496 -5.438238 -73.248541 -2.201255 -129.196676 81.154795 -127.597338 -2.284314 -17.168159 0.256695 -0.281968 0.825010 -0.138091 -9.484929 -77.402597 25.461670 115.105696 78.058987 112.156746 -15.642472 -21.911215 0.395327 -0.331669 -1.080198 -0.194468
-69.770548 50.508301 -4.693633 165.788442 -6.769259 -0.349391 2.842782 6.645897 0.972422 0.098181 0.282748 -0.003438 0.191207 0.502873 0.002896 2.346916 6.354370 0.112961 1.632500 18.931866 0.537669 2.819038 -0.632164 0.468299 2.316563 6.808302 0.929313 -8.254953 -12.585721 -7.857683 -26.199398 -80.081777 42.940694 -2.519837 -2.939188 -34.779927 -5.461940 3.173085 -0.978134 19.026664 -7.670815 4.224524 44.908099 -72.954092 -65.974267 4.300204 -0.242666 19.679136 -5.426275 -73.252669 -2.218189 -129.192343 81.154476 -127.589560 -2.290933 -17.173365 0.249758 -0.270808 0.833450 -0.130637 -9.499803 -77.401227 25.464729 115.083771 78.058332 112.126433 -15.648472 -21.900992 0.411460 -0.366905 -1.091533 -0.204375
-69.772400 50.507681 -4.694060 165.788477 -6.764999 -0.331876 2.831472 6.639592 0.949569 0.104986 0.284979 -0.000517 0.184414 0.500014 -0.000568 2.352027 6.355019 0.113237 1.634217 18.933336 0.538670 2.821353 -0.628422 0.466811 2.310509 6.806725 0.929719 -8.258779 -12.586308 -7.857643 -26.207481 -80.079990 42.964844 -2.519227 -2.933852 -34.784677 -5.465554 3.166049 -0.975204 19.032630 -7.667429 4.228043 44.924841 -72.970688 -65.996828 4.300998 -0.243316 19.679675 -5.379733 -73.257933 -2.271970 -129.206706 81.157746 -127.599254 -2.296255 -17.182527 0.240895 -0.264126 0.842983 -0.126648 -9.475708 -77.404936 25.432357 115.074523 78.053480 112.110572 -15.680703 -21.871784 0.425372 -0.384345 -1.116970 -0.207384
-69.771560 50.506965 -4.694073 165.791410 -6.762677 -0.330665 2.817998 6.630834 0.939002 0.107265 0.286800 0.002457 0.183854 0.499311 -0.000643 2.346937 6.351234 0.111284 1.638835 18.937756 0.537887 2.831513 -0.623049 0.468502 2.314767 6.810611 0.930565 -8.257227 -12.583006 -7.855804 -26.218195 -80.082147 42.986627 -2.515137 -2.925910 -34.789941 -5.462958 3.163204 -0.969168 19.027056 -7.676295 4.231875 44.926510 -72.976783 -65.996972 4.302188 -0.239575 19.690508 -5.387887 -73.260344 -2.270521 -129.220403 81.160429 -127.610786 -2.291013 -17.183392 0.235746 -0.268608 0.843949 -0.127209 -9.522670 -77.406621 25.474441 115.075240 78.049441 112.103572 -15.696052 -21.842054 0.427647 -0.391653 -1.136296 -0.202632
-69.769610 50.506105 -4.693125 165.802270 -6.756729 -0.337861 2.806952 6.623910 0.943543 0.097575 0.278693 -0.003886 0.190776 0.504749 0.002527 2.345041 6.349898 0.109874 1.640043 18.940588 0.537558 2.833884 -0.617599 0.467801 2.316032 6.811960 0.933164 -8.261080 -12.581295 -7.855896 -26.210364 -80.089420 42.981003 -2.512021 -2.920793 -34.806806 -5.470159 3.157363 -0.961723 19.032936 -7.671058 4.233772 44.939741 -72.989716 -66.016832 4.302521 -0.241098 19.697621 -5.432563 -73.266677 -2.238300 -129.239570 81.161543 -127.628853 -2.287197 -17.176795 0.237204 -0.272490 0.838021 -0.133229 -9.586236 -77.414408 25.525541 115.039195 78.035489 112.067188 -15.710052 -21.814180 0.425484 -0.376897 -1.145755 -0.195837
-69.768407 50.505319 -4.693068 165.806110 -6.755265 -0.338268 2.795390 6.616636 0.939439 0.101918 0.282066 -0.002462 0.186098 0.500882 0.000779 2.334585 6.342143 0.103380 1.643935 18.947598 0.533977 2.846613 -0.606878 0.467677 2.330413 6.823428 0.939088 -8.275538 -12.580808 -7.856918 -26.226666 -80.092256 43.007762 -2.510447 -2.916042 -34.808939 -5.462740 3.164520 -0.951897 19.035828 -7.678079 4.237088 44.942906 -72.992411 -66.020091 4.303978 -0.237571 19.701386 -5.449426 -73.268719 -2.233020 -129.267356 81.163715 -127.649621 -2.282547 -17.175858 0.228873 -0.272057 0.840676 -0.131728 -9.590898 -77.417717 25.525839 114.989354 78.018963 112.020909 -15.730473 -21.785973 0.422612 -0.346415 -1.153233 -0.186284
-69.764792 50.504676 -4.693044 165.809659 -6.757894 -0.352540 2.781348 6.611708 0.947960 0.111258 0.287072 -0.000070 0.175623 0.494903 -0.001844 2.336542 6.345325 0.105500 1.651490 18.950681 0.532680 2.847195 -0.602080 0.460923 2.320633 6.820737 0.932491 -8.294546 -12.574940 -7.864124 -26.286334 -80.090482 43.096625 -2.512222 -2.913422 -34.802176 -5.461555 3.161993 -0.949065 19.034800 -7.684566 4.243780 44.963437 -73.006926 -66.047532 4.323393 -0.221369 19.719760 -5.510697 -73.262550 -2.175829 -129.284423 81.167625 -127.661340 -2.284033 -17.177099 0.222601 -0.271738 0.841820 -0.131813 -9.648800 -77.414905 25.579527 114.958632 78.007299 111.990289 -15.701428 -21.768276 0.412286 -0.373164 -1.159230 -0.185426
-69.764356 50.503951 -4.692523 165.800434 -6.753242 -0.348158 2.785821 6.605600 0.943509 0.097675 0.282804 -0.001606 0.182370 0.498163 -0.001059 2.332098 6.345683 0.105954 1.661557 18.951406 0.529584 2.837733 -0.601042 0.445820 2.322844 6.816874 0.925316 -8.293114 -12.567612 -7.863227 -26.281268 -80.093737 43.091134 -2.515271 -2.913050 -34.794764 -5.454239 3.155227 -0.950279 19.010656 -7.705115 4.241167 44.904274 -72.994600 -65.957189 4.309742 -0.228573 19.711782 -5.505674 -73.267719 -2.179802 -129.304410 81.176088 -127.673517 -2.286837 -17.177294 0.211118 -0.267514 0.846442 -0.129658 -9.608371 -77.420376 25.555935 114.937307 78.000223 111.972337 -15.737655 -21.755821 0.418432 -0.365654 -1.161851 -0.181130
-69.762705 50.503314 -4.691599 165.793728 -6.748095 -0.352981 2.787309 6.598510 0.947710 0.091534 0.283833 -0.003299 0.182123 0.498230 -0.000973 2.328921 6.346409 0.107175 1.662477 18.949617 0.525066 2.845255 -0.601520 0.436106 2.321563 6.811412 0.918718 -8.286926 -12.559414 -7.862455 -26.269035 -80.100931 43.075909 -2.505008 -2.913266 -34.813121 -5.441762 3.150327 -0.951634 19.002408 -7.711565 4.242327 44.870665 -73.004996 -65.923596 4.291193 -0.228055 19.692685 -5.529224 -73.272575 -2.153752 -129.304542 81.179934 -127.668633 -2.280280 -17.174095 0.203493 -0.269824 0.846149 -0.130558 -9.621302 -77.425271 25.577037 114.923930 77.995871 111.963094 -15.738531 -21.751965 0.419025 -0.352097 -1.147628 -0.178260
-69.762984 50.502893 -4.692536 165.782839 -6.750786 -0.345426 2.783859 6.601189 0.937926 0.094879 0.284415 -0.005047 0.181883 0.498209 -0.000873 2.330215 6.347406 0.109162 1.658539 18.947919 0.522748 2.852537 -0.605669 0.426146 2.322613 6.807572 0.916697 -8.293314 -12.560213 -7.865602 -26.262395 -80.105524 43.070379 -2.506726 -2.909909 -34.813662 -5.433520 3.145828 -0.951457 18.994197 -7.717368 4.243534 44.868864 -73.018745 -65.917024 4.296077 -0.217519 19.688326 -5.513027 -73.270836 -2.163327 -129.297057 81.182080 -127.660364 -2.281294 -17.177465 0.198172 -0.265316 0.851484 -0.128920 -9.562978 -77.424392 25.533799 114.953476 77.999019 111.997219 -15.762796 -21.755102 0.437025 -0.393245 -1.124817 -0.182372
-69.761009 50.502857 -4.695848 165.762716 -6.770243 -0.349005 2.796554 6.621876 0.939829 0.093223 0.282480 -0.005055 0.181386 0.498132 -0.000737 2.324711 6.348079 0.110213 1.665930 18.947267 0.518470 2.854204 -0.612085 0.420367 2.332641 6.803191 0.915203 -8.299081 -12.556444 -7.870228 -26.274892 -80.112569 43.082178 -2.512492 -2.904483 -34.807706 -5.439267 3.130431 -0.952570 19.004527 -7.711073 4.250627 44.861854 -73.024735 -65.910123 4.295409 -0.212437 19.683934 -5.512875 -73.251725 -2.145414 -129.305085 81.183064 -127.667611 -2.276264 -17.171770 0.199558 -0.272459 0.847864 -0.132254 -9.536183 -77.405818 25.527061 115.048093 78.014838 112.099300 -15.735073 -21.775359 0.458167 -0.369337 -1.111967 -0.196481
-69.759806 50.502593 -4.697384 165.755976 -6.777385 -0.355269 2.784689 6.627669 0.938567 0.104707 0.283785 -0.000842 0.178694 0.497922 -0.000184 2.310987 6.348548 0.111090 1.674560 18.943747 0.509989 2.864397 -0.612320 0.417932 2.338059 6.795369 0.905537 -8.312533 -12.553400 -7.872149 -26.283768 -80.112740 43.111501 -2.516975 -2.899449 -34.802115 -5.427661 3.122352 -0.953217 19.002709 -7.710878 4.256045 44.858113 -73.027653 -65.907555 4.295611 -0.208592 19.682595 -5.537225 -73.244550 -2.116266 -129.297311 81.181156 -127.658208 -2.272451 -17.168455 0.197938 -0.274325 0.845817 -0.132871 -9.573706 -77.395918 25.568797 115.114531 78.025689 112.163030 -15.696727 -21.792040 0.463310 -0.361835 -1.099365 -0.198606
-69.759085 50.502276 -4.698839 165.748529 -6.782506 -0.361790 2.784440 6.632827 0.945082 0.104164 0.283713 -0.000714 0.177774 0.497766 -0.000039 2.299996 6.349537 0.112730 1.665500 18.939338 0.503214 2.887459 -0.611816 0.406855 2.325330 6.780760 0.887233 -8.286483 -12.539013 -7.864466 -26.274156 -80.114634 43.101094 -2.513475 -2.895482 -34.805370 -5.420437 3.111629 -0.954621 19.001912 -7.709243 4.262977 44.841560 -73.023680 -65.888970 4.301147 -0.212101 19.689769 -5.556276 -73.238473 -2.092549 -129.284531 81.180088 -127.642449 -2.264988 -17.167163 0.198273 -0.276151 0.846197 -0.135482 -9.622711 -77.387794 25.623064 115.187490 78.036415 112.231435 -15.660370 -21.809656 0.466640 -0.354855 -1.089048 -0.197877
-69.760616 50.501732 -4.699693 165.756284 -6.779948 -0.360699 2.768856 6.630091 0.940888 0.101807 0.283607 -0.000299 0.178814 0.497747 -0.000277 2.290036 6.350822 0.113779 1.679443 18.937976 0.500400 2.885549 -0.619812 0.395916 2.336430 6.776803 0.881075 -8.294917 -12.538770 -7.860970 -26.260895 -80.115712 43.095891 -2.508578 -2.895766 -34.821153 -5.414621 3.099362 -0.953731 19.003468 -7.705127 4.270346 44.837181 -73.023995 -65.887132 4.296395 -0.213270 19.684285 -5.553092 -73.241715 -2.109161 -129.314093 81.182402 -127.669525 -2.257848 -17.170639 0.203580 -0.281896 0.849259 -0.139637 -9.659760 -77.387724 25.647718 115.211275 78.035656 112.247187 -15.642161 -21.822636 0.468172 -0.358931 -1.080735 -0.194742
-69.762460 50.501330 -4.702409 165.748340 -6.787504 -0.355469 2.773058 6.637347 0.935367 0.101579 0.283608 -0.000279 0.178417 0.497724 -0.000204 2.277727 6.351011 0.112882 1.681061 18.935022 0.497808 2.892975 -0.634792 0.378156 2.345267 6.773221 0.876749 -8.330884 -12.550579 -7.860569 -26.230585 -80.106239 43.076700 -2.504705 -2.893594 -34.811085 -5.404386 3.093695 -0.951936 19.004416 -7.702484 4.273875 44.847356 -73.038368 -65.917496 4.301152 -0.215582 19.685311 -5.516940 -73.235840 -2.147241 -129.352607 81.185706 -127.702819 -2.241394 -17.172599 0.203582 -0.293007 0.850277 -0.144464 -9.644886 -77.378514 25.637697 115.263830 78.039933 112.300411 -15.641107 -21.843725 0.472543 -0.357106 -1.071023 -0.196096
